<svg width="64" height="64" viewBox="0 0 64 64" fill="none" xmlns="http://www.w3.org/2000/svg">
<g clip-path="url(#clip0_347_2)">
<path d="M49 30H23C22.7348 30 22.4804 30.1054 22.2929 30.2929C22.1054 30.4804 22 30.7348 22 31C22 31.2652 22.1054 31.5196 22.2929 31.7071C22.4804 31.8946 22.7348 32 23 32H49C49.2652 32 49.5196 31.8946 49.7071 31.7071C49.8946 31.5196 50 31.2652 50 31C50 30.7348 49.8946 30.4804 49.7071 30.2929C49.5196 30.1054 49.2652 30 49 30Z" fill="url(#paint0_linear_347_2)"/>
<path d="M49 38H15C14.7348 38 14.4804 38.1054 14.2929 38.2929C14.1054 38.4804 14 38.7348 14 39C14 39.2652 14.1054 39.5196 14.2929 39.7071C14.4804 39.8946 14.7348 40 15 40H49C49.2652 40 49.5196 39.8946 49.7071 39.7071C49.8946 39.5196 50 39.2652 50 39C50 38.7348 49.8946 38.4804 49.7071 38.2929C49.5196 38.1054 49.2652 38 49 38Z" fill="url(#paint1_linear_347_2)"/>
<path d="M50 47C50 46.7348 49.8946 46.4804 49.7071 46.2929C49.5196 46.1054 49.2652 46 49 46H15C14.7348 46 14.4804 46.1054 14.2929 46.2929C14.1054 46.4804 14 46.7348 14 47C14 47.2652 14.1054 47.5196 14.2929 47.7071C14.4804 47.8946 14.7348 48 15 48H49C49.2652 48 49.5196 47.8946 49.7071 47.7071C49.8946 47.5196 50 47.2652 50 47Z" fill="url(#paint2_linear_347_2)"/>
<path d="M15 54C14.7348 54 14.4804 54.1054 14.2929 54.2929C14.1054 54.4804 14 54.7348 14 55C14 55.2652 14.1054 55.5196 14.2929 55.7071C14.4804 55.8946 14.7348 56 15 56H37C37.2652 56 37.5196 55.8946 37.7071 55.7071C37.8946 55.5196 38 55.2652 38 55C38 54.7348 37.8946 54.4804 37.7071 54.2929C37.5196 54.1054 37.2652 54 37 54H15Z" fill="url(#paint3_linear_347_2)"/>
<path d="M15 24H23C23.2652 24 23.5196 23.8946 23.7071 23.7071C23.8946 23.5196 24 23.2652 24 23C24 22.7348 23.8946 22.4804 23.7071 22.2929C23.5196 22.1054 23.2652 22 23 22H15C14.7348 22 14.4804 22.1054 14.2929 22.2929C14.1054 22.4804 14 22.7348 14 23C14 23.2652 14.1054 23.5196 14.2929 23.7071C14.4804 23.8946 14.7348 24 15 24V24Z" fill="url(#paint4_linear_347_2)"/>
<path d="M58 1C58 0.734784 57.8946 0.48043 57.7071 0.292893C57.5196 0.105357 57.2652 0 57 0L7 0C6.73478 0 6.48043 0.105357 6.29289 0.292893C6.10536 0.48043 6 0.734784 6 1V63C6 63.2652 6.10536 63.5196 6.29289 63.7071C6.48043 63.8946 6.73478 64 7 64H45C45.265 63.999 45.519 63.8937 45.707 63.707L57.707 51.707C57.8937 51.519 57.999 51.265 58 51V43C58 42.7348 57.8946 42.4804 57.7071 42.2929C57.5196 42.1054 57.2652 42 57 42C56.7348 42 56.4804 42.1054 56.2929 42.2929C56.1054 42.4804 56 42.7348 56 43V50H45C44.7348 50 44.4804 50.1054 44.2929 50.2929C44.1054 50.4804 44 50.7348 44 51V62H8V2H56V35C56 35.2652 56.1054 35.5196 56.2929 35.7071C56.4804 35.8946 56.7348 36 57 36C57.2652 36 57.5196 35.8946 57.7071 35.7071C57.8946 35.5196 58 35.2652 58 35V1ZM54.586 52L46 60.586V52H54.586Z" fill="url(#paint5_linear_347_2)"/>
<path d="M31.9492 23.316L33.7212 18H38.2792L40.0512 23.316C40.0927 23.4408 40.1583 23.5561 40.2444 23.6555C40.3305 23.7549 40.4353 23.8363 40.5529 23.8952C40.6704 23.9541 40.7984 23.9892 40.9296 23.9986C41.0607 24.008 41.1924 23.9915 41.3172 23.95C41.4419 23.9085 41.5573 23.8428 41.6567 23.7568C41.7561 23.6707 41.8375 23.5659 41.8964 23.4483C41.9552 23.3307 41.9904 23.2027 41.9998 23.0716C42.0092 22.9405 41.9927 22.8088 41.9512 22.684L37.9512 10.684C37.8847 10.4845 37.757 10.311 37.5863 10.1882C37.4156 10.0654 37.2105 9.99953 37.0002 10H35.0002C34.7902 9.99995 34.5856 10.066 34.4152 10.1888C34.2449 10.3115 34.1175 10.4848 34.0512 10.684L30.0512 22.684C30.0097 22.8088 29.9932 22.9405 30.0026 23.0716C30.012 23.2027 30.0471 23.3307 30.106 23.4483C30.1649 23.5659 30.2463 23.6707 30.3457 23.7568C30.4451 23.8428 30.5604 23.9085 30.6852 23.95C30.8099 23.9915 30.9416 24.008 31.0728 23.9986C31.2039 23.9892 31.3319 23.9541 31.4495 23.8952C31.567 23.8363 31.6719 23.7549 31.7579 23.6555C31.844 23.5561 31.9097 23.4408 31.9512 23.316H31.9492ZM35.7212 12H36.2792L37.6132 16H34.3872L35.7212 12Z" fill="url(#paint6_linear_347_2)"/>
<path d="M49 11H46V8C46 7.73478 45.8946 7.48043 45.7071 7.29289C45.5196 7.10536 45.2652 7 45 7C44.7348 7 44.4804 7.10536 44.2929 7.29289C44.1054 7.48043 44 7.73478 44 8V11H41C40.7348 11 40.4804 11.1054 40.2929 11.2929C40.1054 11.4804 40 11.7348 40 12C40 12.2652 40.1054 12.5196 40.2929 12.7071C40.4804 12.8946 40.7348 13 41 13H44V16C44 16.2652 44.1054 16.5196 44.2929 16.7071C44.4804 16.8946 44.7348 17 45 17C45.2652 17 45.5196 16.8946 45.7071 16.7071C45.8946 16.5196 46 16.2652 46 16V13H49C49.2652 13 49.5196 12.8946 49.7071 12.7071C49.8946 12.5196 50 12.2652 50 12C50 11.7348 49.8946 11.4804 49.7071 11.2929C49.5196 11.1054 49.2652 11 49 11Z" fill="url(#paint7_linear_347_2)"/>
<path d="M56.29 38.29C56.2017 38.3872 56.1307 38.4988 56.08 38.62C56.0272 38.7397 56 38.8691 56 39C56 39.1308 56.0272 39.2602 56.08 39.38C56.1307 39.5011 56.2017 39.6127 56.29 39.71C56.4817 39.8925 56.7352 39.9961 57 40C57.2651 39.998 57.5193 39.8942 57.71 39.71C57.7982 39.6127 57.8692 39.5011 57.92 39.38C57.9727 39.2602 58 39.1308 58 39C58 38.8691 57.9727 38.7397 57.92 38.62C57.8692 38.4988 57.7982 38.3872 57.71 38.29C57.5166 38.1115 57.2631 38.0125 57 38.0125C56.7368 38.0125 56.4833 38.1115 56.29 38.29V38.29Z" fill="url(#paint8_linear_347_2)"/>
</g>
<defs>
<linearGradient id="paint0_linear_347_2" x1="22" y1="31" x2="50" y2="31" gradientUnits="userSpaceOnUse">
<stop stop-color="#FEB78B"/>
<stop offset="1" stop-color="#DE6463"/>
</linearGradient>
<linearGradient id="paint1_linear_347_2" x1="14" y1="39" x2="1" y2="39" gradientUnits="userSpaceOnUse">
<stop stop-color="#FEB78B"/>
<stop offset="1" stop-color="#DE6463"/>
</linearGradient>
<linearGradient id="paint2_linear_347_2" x1="14" y1="47" x2="1" y2="47" gradientUnits="userSpaceOnUse">
<stop stop-color="#FEB78B"/>
<stop offset="1" stop-color="#DE6463"/>
</linearGradient>
<linearGradient id="paint3_linear_347_2" x1="14" y1="55" x2="38" y2="55" gradientUnits="userSpaceOnUse">
<stop stop-color="#FEB78B"/>
<stop offset="1" stop-color="#DE6463"/>
</linearGradient>
<linearGradient id="paint4_linear_347_2" x1="14" y1="23" x2="24" y2="23" gradientUnits="userSpaceOnUse">
<stop stop-color="#FEB78B"/>
<stop offset="1" stop-color="#DE6463"/>
</linearGradient>
<linearGradient id="paint5_linear_347_2" x1="6" y1="32" x2="58" y2="32" gradientUnits="userSpaceOnUse">
<stop stop-color="#FEB78B"/>
<stop offset="1" stop-color="#DE6463"/>
</linearGradient>
<linearGradient id="paint6_linear_347_2" x1="30.0002" y1="17" x2="42.0002" y2="17" gradientUnits="userSpaceOnUse">
<stop stop-color="#FEB78B"/>
<stop offset="1" stop-color="#DE6463"/>
</linearGradient>
<linearGradient id="paint7_linear_347_2" x1="40" y1="12" x2="1" y2="12" gradientUnits="userSpaceOnUse">
<stop stop-color="#FEB78B"/>
<stop offset="1" stop-color="#DE6463"/>
</linearGradient>
<linearGradient id="paint8_linear_347_2" x1="56" y1="39.006" x2="58" y2="39.006" gradientUnits="userSpaceOnUse">
<stop stop-color="#FEB78B"/>
<stop offset="1" stop-color="#DE6463"/>
</linearGradient>
<clipPath id="clip0_347_2">
<rect width="64" height="64" fill="white"/>
</clipPath>
</defs>
</svg>
